<svg id="Layer_3" enable-background="new 0 0 64 64" height="512" viewBox="0 0 64 64" width="512" xmlns="http://www.w3.org/2000/svg"><path d="m56.835 49.055-5.825-30.098c.614-.831.99-1.847.99-2.957 0-2.757-2.243-5-5-5-.108 0-.208.025-.314.032l-.452-2.715c1.064-.719 1.766-1.937 1.766-3.317 0-2.206-1.794-4-4-4-1.006 0-1.915.385-2.618 1h-6.382c-1.654 0-3 1.346-3 3s1.346 3 3 3h6.382c.703.615 1.612 1 2.618 1 .108 0 .209-.023.314-.032l.432 2.593c-1.621.828-2.746 2.497-2.746 4.439 0 2.085 1.284 3.871 3.102 4.621l2.05 10.594-2.651 11.667c-1.354 5.957-6.565 10.118-12.676 10.118h-9.245c-1.326-4.681-5.647-8-10.58-8-6.065 0-11 4.935-11 11h2c0-4.963 4.037-9 9-9 3.842 0 7.226 2.462 8.479 6h-2.164c-1.126-2.361-3.53-4-6.315-4-3.859 0-7 3.141-7 7s3.141 7 7 7c2.785 0 5.188-1.639 6.315-4h14.048c8.401 0 15.547-5.665 17.494-13.808l1.145 5.916c-1.236 1.263-2.002 2.989-2.002 4.892 0 3.859 3.141 7 7 7s7-3.141 7-7c0-3.576-2.698-6.53-6.165-6.945zm-22.835-44.055c0-.552.448-1 1-1h5.142c-.084.322-.142.653-.142 1s.058.678.142 1h-5.142c-.552 0-1-.448-1-1zm8 0c0-1.103.897-2 2-2s2 .897 2 2-.897 2-2 2-2-.897-2-2zm10.784 44.789-5.576-28.81c.738-.031 1.429-.225 2.052-.544l5.55 28.674c-.719.124-1.4.355-2.026.68zm-8.784-33.789c0-1.654 1.346-3 3-3s3 1.346 3 3-1.346 3-3 3-3-1.346-3-3zm-32 45c-2.757 0-5-2.243-5-5s2.243-5 5-5 5 2.243 5 5-2.243 5-5 5zm35.981-16.529c-1.638 7.377-8.061 12.529-15.618 12.529h-13.443c.047-.328.08-.66.08-1s-.033-.672-.08-1h12.905c7.05 0 13.064-4.802 14.627-11.676l1.644-7.234.814 4.203zm8.019 16.529c-2.757 0-5-2.243-5-5s2.243-5 5-5 5 2.243 5 5-2.243 5-5 5z"/><path d="m56 53c-1.654 0-3 1.346-3 3s1.346 3 3 3 3-1.346 3-3-1.346-3-3-3zm0 4c-.552 0-1-.448-1-1s.448-1 1-1 1 .448 1 1-.448 1-1 1z"/><path d="m12 53c-1.654 0-3 1.346-3 3s1.346 3 3 3 3-1.346 3-3-1.346-3-3-3zm0 4c-.552 0-1-.448-1-1s.448-1 1-1 1 .448 1 1-.448 1-1 1z"/><path d="m24 49h12v2h-12z"/></svg>